<?xml version="1.0" encoding="utf-8"?>
<!-- Generator: Adobe Illustrator 21.1.0, SVG Export Plug-In . SVG Version: 6.00 Build 0)  -->
<svg version="1.1" id="Layer_1" xmlns="http://www.w3.org/2000/svg" xmlns:xlink="http://www.w3.org/1999/xlink" x="0px" y="0px"
	 viewBox="0 0 1000 1000" style="enable-background:new 0 0 1000 1000;" xml:space="preserve">
<path d="M881.1,789.6c25.2,25.2,25.2,66.2,0,91.4s-66.2,25.2-91.4,0L297.4,388.8c-15.3,5.3-31.7,8.4-48.8,8.4
	c-82.1,0-148.6-66.5-148.6-148.6c0-17.1,3-33.5,8.4-48.8l83.1,83.1c25.2,25.2,66.2,25.2,91.4,0c25.2-25.2,25.2-66.2,0-91.4
	l-83.1-83.1c15.3-5.3,31.7-8.4,48.8-8.4c82.1,0,148.6,66.5,148.6,148.6c0,17.1-3,33.5-8.4,48.8L881.1,789.6z M118.9,789.6
	c-25.2,25.2-25.2,66.2,0,91.4s66.2,25.2,91.4,0l232.5-232.5l-91.4-91.4L118.9,789.6z M625.7,420l148.6-148.6l34.3,34.3l91.4-160
	L854.3,100l-160,91.4l34.3,34.3L580,374.3L625.7,420z"/>
</svg>
