<?xml version="1.0" encoding="utf-8"?>
<!-- Generator: Adobe Illustrator 21.1.0, SVG Export Plug-In . SVG Version: 6.00 Build 0)  -->
<svg version="1.1" id="Layer_1" xmlns="http://www.w3.org/2000/svg" xmlns:xlink="http://www.w3.org/1999/xlink" x="0px" y="0px"
	 viewBox="0 0 500 500" style="enable-background:new 0 0 500 500;" xml:space="preserve">
<path d="M439.6,439.6L439.6,439.6c-13.8,13.8-36.2,13.8-50,0L146.5,196.5c-6.9,2.1-14,3.5-21.5,3.5c-41.4,0-75-33.6-75-75
	c0-7.5,1.4-14.6,3.5-21.5l36.1,36.1c13.8,13.8,36.2,13.8,50,0l0,0c13.8-13.8,13.8-36.2,0-50l-36.1-36.1c6.9-2.1,14-3.5,21.5-3.5
	c41.4,0,75,33.6,75,75c0,7.5-1.4,14.6-3.5,21.5l243.2,243.2C453.5,403.5,453.5,425.8,439.6,439.6z M60.4,389.6
	c-13.8,13.8-13.8,36.2,0,50l0,0c13.8,13.8,36.2,13.8,50,0L225,325l-50-50L60.4,389.6z M287.5,187.5l25,25l75-75L400,150l50-75
	l-25-25l-75,50l13.2,13.2l-0.7-0.7L287.5,187.5z"/>
</svg>
