<?xml version="1.0" encoding="utf-8"?>
<!-- Generator: Adobe Illustrator 22.0.1, SVG Export Plug-In . SVG Version: 6.00 Build 0)  -->
<svg version="1.1" id="Layer_1" xmlns="http://www.w3.org/2000/svg" xmlns:xlink="http://www.w3.org/1999/xlink" x="0px" y="0px"
	 viewBox="0 0 500 500" style="enable-background:new 0 0 500 500;" xml:space="preserve">
<path d="M450,362.5c0,20.7-16.8,37.5-37.5,37.5h-250c-20.7,0-37.5-16.8-37.5-37.5s16.8-37.5,37.5-37.5h250
	C433.2,325,450,341.8,450,362.5z M412.5,225H293.1c-15.5,43.6-56.7,75-105.6,75h225c20.7,0,37.5-16.8,37.5-37.5S433.2,225,412.5,225
	z M139.5,260.5l-59.3,59.3c-6.9,6.9-18.1,6.9-25,0c-6.9-6.9-6.9-18.1,0-25l59.3-59.3c-9.1-13.8-14.5-30.3-14.5-48
	c0-48.3,39.2-87.5,87.5-87.5s87.5,39.2,87.5,87.5S235.8,275,187.5,275C169.7,275,153.3,269.6,139.5,260.5z M133.2,217.8
	c5.6,10.1,13.9,18.3,24,24c9,5,19.3,8.2,30.3,8.2c34.5,0,62.5-28,62.5-62.5S222,125,187.5,125S125,153,125,187.5
	C125,198.6,128.1,208.8,133.2,217.8z M298.7,200h113.8c20.7,0,37.5-16.8,37.5-37.5S433.2,125,412.5,125H281c12,17.9,19,39.4,19,62.5
	C300,191.8,299.2,195.8,298.7,200z"/>
</svg>
