<?xml version="1.0" encoding="utf-8"?>
<!-- Generator: Adobe Illustrator 21.1.0, SVG Export Plug-In . SVG Version: 6.00 Build 0)  -->
<svg version="1.1" id="Layer_1" xmlns="http://www.w3.org/2000/svg" xmlns:xlink="http://www.w3.org/1999/xlink" x="0px" y="0px"
	 viewBox="0 0 500 500" style="enable-background:new 0 0 500 500;" xml:space="preserve">
<path d="M400,100H262.5V50h-25v50H100v137.5H50v25h50V400h137.5v50h25v-50H400V262.5h50v-25h-50V100z M350,350H150V150h200V350z
	 M85.4,397l17.7,17.7L67.7,450L50,432.3L85.4,397z M188.1,294.2l17.7,17.7l31.7-31.7V325h25v-44.8l31.7,31.7l17.7-17.7l-31.7-31.7
	H325v-25h-44.8l31.7-31.7l-17.7-17.7l-31.7,31.7V175h-25v44.8l-31.7-31.7l-17.7,17.7l31.7,31.7H175v25h44.8L188.1,294.2z M225,239.6
	l14.6-14.6h20.7l14.6,14.6v20.7L260.4,275h-20.7L225,260.4V239.6z M414.6,103L397,85.4L432.3,50L450,67.7L414.6,103z M414.6,397
	l35.4,35.4L432.3,450L397,414.6L414.6,397z M85.4,103L50,67.7L67.7,50L103,85.4L85.4,103z"/>
</svg>
