<?xml version="1.0" encoding="utf-8"?>
<!-- Generator: Adobe Illustrator 21.1.0, SVG Export Plug-In . SVG Version: 6.00 Build 0)  -->
<svg version="1.1" id="Layer_1" xmlns="http://www.w3.org/2000/svg" xmlns:xlink="http://www.w3.org/1999/xlink" x="0px" y="0px"
	 viewBox="0 0 1000 1000" style="enable-background:new 0 0 1000 1000;" xml:space="preserve">
<path d="M115.8,100l31.7,31.7l-15.8,15.8L100,115.8L115.8,100z M361,376.9l65.5,65.5l15.8-15.8L376.9,361L361,376.9z M557.6,573.4
	l65.5,65.5l15.8-15.8l-65.5-65.5L557.6,573.4z M852.5,868.3l31.7,31.7l15.8-15.8l-31.7-31.7L852.5,868.3z M100,884.2l15.8,15.8
	l31.7-31.7l-15.8-15.8L100,884.2z M639,376.9L623.1,361l-65.5,65.5l15.8,15.8L639,376.9z M785.7,230.1v258.4H810v22.9h-24.3v258.4
	l49.9,49.9l-15.8,15.8l-49.8-49.8H511.4V810h-22.9v-24.3H230.1l-49.8,49.8l-15.8-15.8l49.8-49.8V511.4H190v-22.9h24.3V230.1
	l-49.8-49.8l15.8-15.8l49.8,49.8h258.4V190h22.9v24.3h258.5l49.8-49.8l15.8,15.8L785.7,230.1z M717.1,701.3V298.7l-45.4,45.4
	l-15.8-15.8l45.4-45.4H298.7l45.4,45.4l-15.8,15.8l-45.4-45.4v402.6l45.4-45.4l15.8,15.8l-45.4,45.4h402.6l-45.4-45.4l15.8-15.8
	L717.1,701.3z M361,623.1l15.8,15.8l65.5-65.5l-15.8-15.8L361,623.1z M540.7,475.2l-15.8-15.8l-13.4,13.4v-17h-22.9v17l-13.4-13.4
	l-15.8,15.8l13.4,13.4h-17v22.9h17l-13.4,13.4l15.8,15.8l13.4-13.4v17h22.9v-17l13.4,13.4l15.8-15.8l-13.4-13.4h17v-22.9h-17
	L540.7,475.2z M900,115.8L884.2,100l-31.7,31.7l15.8,15.8L900,115.8z M145.7,488.6H100v22.9h45.7V488.6z M588.6,488.6v22.9h88.6
	v-22.9H588.6z M411.4,488.6h-88.6v22.9h88.6V488.6z M854.3,511.4H900v-22.9h-45.7V511.4z M488.6,900h22.9v-45.7h-22.9V900z
	 M488.6,677.1h22.9v-88.6h-22.9V677.1z M511.4,322.9h-22.9v88.6h22.9V322.9z M511.4,100h-22.9v45.7h22.9V100z"/>
</svg>
