<?xml version="1.0" encoding="utf-8"?>
<!-- Generator: Adobe Illustrator 22.0.1, SVG Export Plug-In . SVG Version: 6.00 Build 0)  -->
<svg version="1.1" id="Layer_1" xmlns="http://www.w3.org/2000/svg" xmlns:xlink="http://www.w3.org/1999/xlink" x="0px" y="0px"
	 viewBox="0 0 1000 1000" style="enable-background:new 0 0 1000 1000;" xml:space="preserve">
<path d="M625.7,500c0,69.4-56.3,125.7-125.7,125.7S374.3,569.4,374.3,500S430.6,374.3,500,374.3S625.7,430.6,625.7,500z M900,191.4
	v617.1c0,50.5-40.9,91.4-91.4,91.4H191.4c-50.5,0-91.4-40.9-91.4-91.4V191.4c0-50.5,40.9-91.4,91.4-91.4h617.1
	C859.1,100,900,140.9,900,191.4z M808.6,465.7c0-6.3-5.1-11.4-11.4-11.4h-61.6c-6.2-32.3-18.8-62.3-36.6-88.6l43.5-43.5
	c4.5-4.5,4.5-11.7,0-16.2l-48.5-48.5c-4.5-4.5-11.7-4.5-16.2,0l-43.5,43.5c-26.3-17.8-56.3-30.4-88.6-36.6v-61.6
	c0-6.3-5.1-11.4-11.4-11.4h-68.6c-6.3,0-11.4,5.1-11.4,11.4v61.6c-32.3,6.2-62.3,18.8-88.6,36.6l-43.5-43.5
	c-4.5-4.5-11.7-4.5-16.2,0l-48.5,48.5c-4.5,4.5-4.5,11.7,0,16.2l43.5,43.5c-17.8,26.3-30.4,56.3-36.6,88.6h-61.6
	c-6.3,0-11.4,5.1-11.4,11.4v68.6c0,6.3,5.1,11.4,11.4,11.4h61.6c6.2,32.3,18.8,62.3,36.6,88.6l-43.5,43.5c-4.5,4.5-4.5,11.7,0,16.2
	l48.5,48.5c4.5,4.5,11.7,4.5,16.2,0l43.5-43.5c26.3,17.8,56.3,30.4,88.6,36.6v61.6c0,6.3,5.1,11.4,11.4,11.4h68.6
	c6.3,0,11.4-5.1,11.4-11.4v-61.6c32.3-6.2,62.3-18.8,88.6-36.6l43.5,43.5c4.5,4.5,11.7,4.5,16.2,0l48.5-48.5
	c4.5-4.5,4.5-11.7,0-16.2l-43.5-43.5c17.8-26.3,30.4-56.3,36.6-88.6h61.6c6.3,0,11.4-5.1,11.4-11.4V465.7z"/>
</svg>
