<?xml version="1.0" encoding="utf-8"?>
<!-- Generator: Adobe Illustrator 21.1.0, SVG Export Plug-In . SVG Version: 6.00 Build 0)  -->
<svg version="1.1" id="Layer_1" xmlns="http://www.w3.org/2000/svg" xmlns:xlink="http://www.w3.org/1999/xlink" x="0px" y="0px"
	 viewBox="0 0 500 500" style="enable-background:new 0 0 500 500;" xml:space="preserve">
<path d="M137.5,75h-75C55.6,75,50,80.6,50,87.5v350c0,6.9,5.6,12.5,12.5,12.5h75c6.9,0,12.5-5.6,12.5-12.5v-350
	C150,80.6,144.4,75,137.5,75z M125,200H75v-25h50V200z M125,150H75v-25h50V150z M262.5,50h-75c-6.9,0-12.5,5.6-12.5,12.5v375
	c0,6.9,5.6,12.5,12.5,12.5h75c6.9,0,12.5-5.6,12.5-12.5v-375C275,55.6,269.4,50,262.5,50z M250,175h-50v-25h50V175z M250,125h-50
	v-25h50V125z M397.7,126.9c-1.2-6.8-7.7-11.3-14.5-10.1l-73.9,13c-6.8,1.2-11.3,7.7-10.1,14.5l52.1,295.4
	c1.2,6.8,7.7,11.3,14.5,10.1l73.9-13c6.8-1.2,11.3-7.7,10.1-14.5L397.7,126.9z M330.4,176.8l49.2-8.7l4.3,24.6l-49.2,8.7
	L330.4,176.8z M343.4,250.7l-4.3-24.6l49.2-8.7l4.3,24.6L343.4,250.7z"/>
</svg>
