<?xml version="1.0" encoding="utf-8"?>
<!-- Generator: Adobe Illustrator 21.0.2, SVG Export Plug-In . SVG Version: 6.00 Build 0)  -->
<svg version="1.1" id="Layer_1" xmlns="http://www.w3.org/2000/svg" xmlns:xlink="http://www.w3.org/1999/xlink" x="0px" y="0px"
	 viewBox="0 0 1000 1000" enable-background="new 0 0 1000 1000" xml:space="preserve">
<path d="M442.857,454.29V157.147c0-31.566,25.577-57.143,57.143-57.143s57.143,25.577,57.143,57.143V454.29
	c0,31.566-25.577,57.143-57.143,57.143S442.857,485.855,442.857,454.29z M625.714,167.638v98.949
	c94.674,46.537,160,143.657,160,256.274c0,157.806-127.931,285.714-285.714,285.714S214.286,680.644,214.286,522.861
	c0-112.617,65.326-209.737,160-256.274v-98.949c-146.377,51.817-251.429,191.086-251.429,355.223
	c0,208.297,168.846,377.143,377.143,377.143s377.143-168.846,377.143-377.143C877.143,358.724,772.091,219.455,625.714,167.638z"/>
</svg>
