<?xml version="1.0" encoding="utf-8"?>
<!-- Generator: Adobe Illustrator 21.0.2, SVG Export Plug-In . SVG Version: 6.00 Build 0)  -->
<svg version="1.1" id="Layer_1" xmlns="http://www.w3.org/2000/svg" xmlns:xlink="http://www.w3.org/1999/xlink" x="0px" y="0px"
	 viewBox="0 0 500 500" enable-background="new 0 0 500 500" xml:space="preserve">
<path d="M250,50L250,50c13.8,0,25,11.2,25,25v150c0,13.8-11.2,25-25,25l0,0c-13.8,0-25-11.2-25-25V75C225,61.2,236.2,50,250,50z
	 M325,64.675v55.55c44.8,25.95,75,74.275,75,129.775c0,82.85-67.15,150-150,150s-150-67.15-150-150c0-55.5,30.2-103.825,75-129.775
	v-55.55C101.725,94.35,50,166.075,50,250c0,110.45,89.55,200,200,200s200-89.55,200-200C450,166.075,398.275,94.35,325,64.675z"/>
</svg>
