<?xml version="1.0" encoding="utf-8"?>
<!-- Generator: Adobe Illustrator 21.0.2, SVG Export Plug-In . SVG Version: 6.00 Build 0)  -->
<svg version="1.1" id="Layer_1" xmlns="http://www.w3.org/2000/svg" xmlns:xlink="http://www.w3.org/1999/xlink" x="0px" y="0px"
	 viewBox="0 0 500 500" enable-background="new 0 0 500 500" xml:space="preserve">
<path d="M300,50c-82.825,0-150,67.15-150,150c0,28.45,8.05,54.95,21.825,77.6L62.075,385.075c-0.625,0.575-1.25,1.15-1.825,1.775
	l-0.725,0.725l0.1,0.075C53.7,394.275,50,402.925,50,412.5c0,20.725,16.8,37.5,37.5,37.5c11.925,0,22.4-5.65,29.25-14.3l0.125,0.075
	l105.5-107.6C245.05,341.925,271.55,350,300,350c82.825,0,150-67.15,150-150S382.825,50,300,50z M300.525,300.775
	c-55.225,0-100-44.775-100-100s44.775-100,100-100s100,44.775,100,100S355.725,300.775,300.525,300.775z"/>
</svg>
