<?xml version="1.0" encoding="utf-8"?>
<!-- Generator: Adobe Illustrator 21.0.2, SVG Export Plug-In . SVG Version: 6.00 Build 0)  -->
<svg version="1.1" id="Layer_1" xmlns="http://www.w3.org/2000/svg" xmlns:xlink="http://www.w3.org/1999/xlink" x="0px" y="0px"
	 viewBox="0 0 1000 1000" enable-background="new 0 0 1000 1000" xml:space="preserve">
<path d="M602.712,100c-164.191,0-297.281,133.03-297.281,297.145c0,55.452,15.481,107.155,41.939,151.59l-7.341,8.914
	L121.209,776.393c-28.287,28.297-28.287,74.103,0,102.401c28.333,28.274,74.16,28.274,102.402,0l217.975-217.853
	c0.252,0.137,3.842-3.406,9.056-8.823c44.546,26.606,96.433,42.172,152.071,42.172c164.19,0,297.281-133.03,297.281-297.145
	S766.903,100,602.712,100z M602.712,602.861c-113.676,0-205.81-92.092-205.81-205.716s92.134-205.716,205.81-205.716
	s205.81,92.092,205.81,205.716S716.388,602.861,602.712,602.861z"/>
</svg>
