<?xml version="1.0" encoding="utf-8"?>
<!-- Generator: Adobe Illustrator 21.1.0, SVG Export Plug-In . SVG Version: 6.00 Build 0)  -->
<svg version="1.1" id="Layer_1" xmlns="http://www.w3.org/2000/svg" xmlns:xlink="http://www.w3.org/1999/xlink" x="0px" y="0px"
	 viewBox="0 0 500 500" style="enable-background:new 0 0 500 500;" xml:space="preserve">
<path d="M425,50H100v25H75c-13.8,0-25,11.2-25,25s11.2,25,25,25h25h12.5c6.9,0,12.5,5.6,12.5,12.5s-5.6,12.5-12.5,12.5H100H75
	c-13.8,0-25,11.2-25,25s11.2,25,25,25h25v100H75c-13.8,0-25,11.2-25,25s11.2,25,25,25h25h12.5c6.9,0,12.5,5.6,12.5,12.5
	s-5.6,12.5-12.5,12.5H100H75c-13.8,0-25,11.2-25,25s11.2,25,25,25h25v25h325c13.8,0,25-11.2,25-25V75C450,61.2,438.8,50,425,50z
	 M275,150c27.6,0,50,22.4,50,50c0,27.6-22.4,50-50,50s-50-22.4-50-50S247.4,150,275,150z M337.5,350h-150l10.2-49.2
	c2.8-22.1,17.6-38.3,39.8-38.3h75c22.2,0,36.5,15.2,39.3,37.2l10.7,50.3H337.5z"/>
</svg>
