<?xml version="1.0" encoding="utf-8"?>
<!-- Generator: Adobe Illustrator 22.0.1, SVG Export Plug-In . SVG Version: 6.00 Build 0)  -->
<svg version="1.1" id="Layer_1" xmlns="http://www.w3.org/2000/svg" xmlns:xlink="http://www.w3.org/1999/xlink" x="0px" y="0px"
	 viewBox="0 0 1000 1000" style="enable-background:new 0 0 1000 1000;" xml:space="preserve">
<path d="M900,728.6c0,44.2-35.8,80-80,80H294.3c-44.2,0-80-35.8-80-80c0-44.2,35.8-80,80-80H820C864.2,648.6,900,684.4,900,728.6z
	 M820,420H595.7c-17.4,71-66.3,129.6-131.2,160H820c44.2,0,80-35.8,80-80S864.2,420,820,420z M266.7,504.8L155.2,616.2
	c-12.6,12.6-33.1,12.6-45.7,0l0,0c-12.6-12.6-12.6-33.1,0-45.7L221,459c-18.6-27.4-29.5-60.5-29.5-96.2
	c0-94.7,76.8-171.4,171.4-171.4s171.4,76.8,171.4,171.4s-76.8,171.4-171.4,171.4C327.2,534.3,294.1,523.4,266.7,504.8z M254.2,425.8
	L254.2,425.8c2.7,4.7,5.7,9.1,9,13.4c0.1,0.1,0.1,0.2,0.2,0.3c6.6,8.5,14.3,16.2,22.8,22.8c0.1,0.1,0.2,0.1,0.3,0.2
	c4.3,3.3,8.7,6.3,13.4,9l0,0c18.5,10.8,40,17,63,17c69.4,0,125.7-56.3,125.7-125.7s-56.3-125.7-125.7-125.7s-125.7,56.3-125.7,125.7
	C237.1,385.8,243.4,407.3,254.2,425.8z M820,351.4c44.2,0,80-35.8,80-80s-35.8-80-80-80H530.7c41.9,41.1,68.7,97.4,71.6,160H820z"/>
</svg>
