<?xml version="1.0" encoding="utf-8"?>
<!-- Generator: Adobe Illustrator 22.0.1, SVG Export Plug-In . SVG Version: 6.00 Build 0)  -->
<svg version="1.1" id="Layer_1" xmlns="http://www.w3.org/2000/svg" xmlns:xlink="http://www.w3.org/1999/xlink" x="0px" y="0px"
	 viewBox="0 0 500 500" style="enable-background:new 0 0 500 500;" xml:space="preserve">
<path d="M300,250c0,27.6-22.4,50-50,50s-50-22.4-50-50s22.4-50,50-50S300,222.4,300,250z M450,100v300c0,27.6-22.4,50-50,50H100
	c-27.6,0-50-22.4-50-50V100c0-27.6,22.4-50,50-50h300C427.6,50,450,72.4,450,100z M400,230c0-2.8-2.2-5-5-5h-35.5
	c-2.8-12.5-7.8-24.1-14.5-34.7l25.2-25.2c2-2,2-5.1,0-7.1l-28.3-28.3c-2-2-5.1-2-7.1,0L309.7,155c-10.5-6.6-22.2-11.6-34.7-14.5V105
	c0-2.8-2.2-5-5-5h-40c-2.8,0-5,2.2-5,5v35.5c-12.5,2.8-24.1,7.8-34.7,14.5l-25.2-25.2c-2-2-5.1-2-7.1,0l-28.3,28.3c-2,2-2,5.1,0,7.1
	l25.2,25.2c-6.6,10.5-11.6,22.2-14.5,34.7H105c-2.8,0-5,2.2-5,5v40c0,2.8,2.2,5,5,5h35.5c2.8,12.5,7.8,24.1,14.5,34.7l-25.2,25.2
	c-2,2-2,5.1,0,7.1l28.3,28.3c2,2,5.1,2,7.1,0l25.2-25.2c10.5,6.6,22.2,11.6,34.7,14.5V395c0,2.8,2.2,5,5,5h40c2.8,0,5-2.2,5-5v-35.5
	c12.5-2.8,24.1-7.8,34.7-14.5l25.2,25.2c2,2,5.1,2,7.1,0l28.3-28.3c2-2,2-5.1,0-7.1L345,309.7c6.6-10.5,11.6-22.2,14.5-34.7H395
	c2.8,0,5-2.2,5-5V230z"/>
</svg>
