<?xml version="1.0" encoding="utf-8"?>
<!-- Generator: Adobe Illustrator 21.1.0, SVG Export Plug-In . SVG Version: 6.00 Build 0)  -->
<svg version="1.1" id="Layer_1" xmlns="http://www.w3.org/2000/svg" xmlns:xlink="http://www.w3.org/1999/xlink" x="0px" y="0px"
	 viewBox="0 0 1000 1000" style="enable-background:new 0 0 1000 1000;" xml:space="preserve">
<path d="M282.9,145.7h-160c-12.6,0-22.9,10.2-22.9,22.9v708.6c0,12.6,10.2,22.9,22.9,22.9h160c12.6,0,22.9-10.2,22.9-22.9V168.6
	C305.7,155.9,295.5,145.7,282.9,145.7z M260,374.3H145.7v-45.7H260V374.3z M260,282.9H145.7v-45.7H260V282.9z M899.4,842.2
	L762.1,228c-2.8-12.3-15-20.1-27.3-17.3L601,240.6c-12.3,2.8-20.1,15-17.3,27.3L721,882.1c2.8,12.3,15,20.1,27.3,17.3l133.8-29.9
	C894.4,866.8,902.2,854.6,899.4,842.2z M638.3,302.5l89.2-19.9l10,44.6l-89.2,19.9L638.3,302.5z M668.2,436.4l-10-44.6l89.2-19.9
	l10,44.6L668.2,436.4z M534.3,100h-160c-12.6,0-22.9,10.2-22.9,22.9v754.3c0,12.6,10.2,22.9,22.9,22.9h160
	c12.6,0,22.9-10.2,22.9-22.9V122.9C557.1,110.2,546.9,100,534.3,100z M511.4,305.7H397.1V260h114.3V305.7z M511.4,214.3H397.1v-45.7
	h114.3V214.3z"/>
</svg>
