<?xml version="1.0" encoding="utf-8"?>
<!-- Generator: Adobe Illustrator 21.1.0, SVG Export Plug-In . SVG Version: 6.00 Build 0)  -->
<svg version="1.1" id="Layer_1" xmlns="http://www.w3.org/2000/svg" xmlns:xlink="http://www.w3.org/1999/xlink" x="0px" y="0px"
	 viewBox="0 0 1000 1000" style="enable-background:new 0 0 1000 1000;" xml:space="preserve">
<path d="M877.1,100H168.6v68.6h-45.7c-12.6,0-22.9,10.2-22.9,22.9v22.9c0,12.6,10.2,22.9,22.9,22.9h45.7h45.7
	c12.6,0,22.9,10.2,22.9,22.9v22.9c0,12.6-10.2,22.9-22.9,22.9h-45.7h-45.7c-12.6,0-22.9,10.2-22.9,22.9v22.9
	c0,12.6,10.2,22.9,22.9,22.9h45.7v251.4h-45.7c-12.6,0-22.9,10.2-22.9,22.9v22.9c0,12.6,10.2,22.9,22.9,22.9h45.7h45.7
	c12.6,0,22.9,10.2,22.9,22.9V740c0,12.6-10.2,22.9-22.9,22.9h-45.7h-45.7c-12.6,0-22.9,10.2-22.9,22.9v22.9
	c0,12.6,10.2,22.9,22.9,22.9h45.7V900h708.6c12.6,0,22.9-10.2,22.9-22.9V122.9C900,110.2,889.8,100,877.1,100z M534.3,317.1
	c50.5,0,91.4,41,91.4,91.4c0,50.5-40.9,91.4-91.4,91.4s-91.4-40.9-91.4-91.4S483.8,317.1,534.3,317.1z M648.6,682.9H374.3l18.6-90
	c5.1-40.3,32.1-70,72.8-70h137.1c40.7,0,66.8,27.7,71.9,68.1l19.5,91.9H648.6z"/>
</svg>
